<svg id="visual" viewBox="0 0 2560 1440" width="2560" height="1440" xmlns="http://www.w3.org/2000/svg" xmlns:xlink="http://www.w3.org/1999/xlink" version="1.1"><g stroke-width="1" stroke-linejoin="bevel"><path d="M1335 769L1335 832L1347 814Z" fill="#030a17" stroke="#fb5607"></path><path d="M1335 769L1225 777L1335 832Z" fill="#02010a" stroke="#fb5607"></path><path d="M1309 993L1388 918L1335 832Z" fill="#020b18" stroke="#fb5607"></path><path d="M1335 832L1388 918L1347 814Z" fill="#030511" stroke="#fb5607"></path><path d="M1347 814L1501 743L1335 769Z" fill="#030613" stroke="#fb5607"></path><path d="M1225 777L1222 952L1335 832Z" fill="#030511" stroke="#fb5607"></path><path d="M1222 952L1309 993L1335 832Z" fill="#03040f" stroke="#fb5607"></path><path d="M1388 918L1501 743L1347 814Z" fill="#02010a" stroke="#fb5607"></path><path d="M1335 769L1198 619L1225 777Z" fill="#02010a" stroke="#fb5607"></path><path d="M1432 556L1198 619L1335 769Z" fill="#03040f" stroke="#fb5607"></path><path d="M1225 777L1004 810L1222 952Z" fill="#030815" stroke="#fb5607"></path><path d="M994 891L1225 1010L1222 952Z" fill="#03020d" stroke="#fb5607"></path><path d="M1222 952L1225 1010L1309 993Z" fill="#03020d" stroke="#fb5607"></path><path d="M1225 1010L1273 1031L1309 993Z" fill="#020b18" stroke="#fb5607"></path><path d="M1583 912L1583 899L1388 918Z" fill="#030613" stroke="#fb5607"></path><path d="M1198 619L1104 631L1225 777Z" fill="#030613" stroke="#fb5607"></path><path d="M1501 743L1432 556L1335 769Z" fill="#030a17" stroke="#fb5607"></path><path d="M1198 619L1183 546L1104 631Z" fill="#020b18" stroke="#fb5607"></path><path d="M1432 556L1183 546L1198 619Z" fill="#030511" stroke="#fb5607"></path><path d="M1583 912L1388 918L1536 1043Z" fill="#00101c" stroke="#fb5607"></path><path d="M1388 918L1583 899L1501 743Z" fill="#020d19" stroke="#fb5607"></path><path d="M1501 743L1597 615L1432 556Z" fill="#03040f" stroke="#fb5607"></path><path d="M1124 536L1080 614L1104 631Z" fill="#030613" stroke="#fb5607"></path><path d="M1104 631L1004 810L1225 777Z" fill="#030613" stroke="#fb5607"></path><path d="M1536 1043L1388 918L1309 993Z" fill="#030815" stroke="#fb5607"></path><path d="M992 641L1004 810L1104 631Z" fill="#03040f" stroke="#fb5607"></path><path d="M1815 928L1612 824L1583 899Z" fill="#02010a" stroke="#fb5607"></path><path d="M1583 899L1612 824L1501 743Z" fill="#03040f" stroke="#fb5607"></path><path d="M1815 928L1619 812L1612 824Z" fill="#00101c" stroke="#fb5607"></path><path d="M1612 824L1619 812L1501 743Z" fill="#030613" stroke="#fb5607"></path><path d="M842 798L994 821L850 713Z" fill="#020b18" stroke="#fb5607"></path><path d="M1004 810L994 891L1222 952Z" fill="#010f1b" stroke="#fb5607"></path><path d="M1118 526L1124 536L1183 546Z" fill="#010f1b" stroke="#fb5607"></path><path d="M1183 546L1124 536L1104 631Z" fill="#03020d" stroke="#fb5607"></path><path d="M994 821L994 891L1004 810Z" fill="#030511" stroke="#fb5607"></path><path d="M1462 1151L1536 1043L1309 993Z" fill="#020d19" stroke="#fb5607"></path><path d="M1815 928L1648 753L1619 812Z" fill="#02010a" stroke="#fb5607"></path><path d="M1163 442L1118 526L1183 546Z" fill="#030613" stroke="#fb5607"></path><path d="M1124 536L1118 526L1080 614Z" fill="#03020d" stroke="#fb5607"></path><path d="M1648 753L1597 615L1501 743Z" fill="#010f1b" stroke="#fb5607"></path><path d="M1815 928L1583 899L1583 912Z" fill="#020b18" stroke="#fb5607"></path><path d="M1619 812L1648 753L1501 743Z" fill="#03040f" stroke="#fb5607"></path><path d="M1225 1010L1187 1127L1273 1031Z" fill="#020d19" stroke="#fb5607"></path><path d="M1273 1031L1462 1151L1309 993Z" fill="#030a17" stroke="#fb5607"></path><path d="M1128 1126L1187 1127L1225 1010Z" fill="#010f1b" stroke="#fb5607"></path><path d="M1118 526L992 641L1080 614Z" fill="#030511" stroke="#fb5607"></path><path d="M1080 614L992 641L1104 631Z" fill="#03020d" stroke="#fb5607"></path><path d="M842 798L894 991L994 891Z" fill="#030511" stroke="#fb5607"></path><path d="M1536 1043L1610 986L1583 912Z" fill="#03020d" stroke="#fb5607"></path><path d="M1376 421L1253 441L1432 556Z" fill="#030815" stroke="#fb5607"></path><path d="M1432 556L1253 441L1183 546Z" fill="#02010a" stroke="#fb5607"></path><path d="M994 891L1128 1126L1225 1010Z" fill="#03020d" stroke="#fb5607"></path><path d="M1518 444L1431 450L1432 556Z" fill="#02010a" stroke="#fb5607"></path><path d="M1499 1176L1402 1293L1517 1252Z" fill="#03040f" stroke="#fb5607"></path><path d="M1187 1127L1462 1151L1273 1031Z" fill="#030613" stroke="#fb5607"></path><path d="M1536 1043L1638 1143L1610 986Z" fill="#030511" stroke="#fb5607"></path><path d="M1431 450L1376 421L1432 556Z" fill="#010f1b" stroke="#fb5607"></path><path d="M1043 418L1163 442L1076 276Z" fill="#020b18" stroke="#fb5607"></path><path d="M1253 441L1163 442L1183 546Z" fill="#030815" stroke="#fb5607"></path><path d="M1118 526L1043 418L992 641Z" fill="#03040f" stroke="#fb5607"></path><path d="M1607 496L1518 444L1432 556Z" fill="#03040f" stroke="#fb5607"></path><path d="M1431 450L1397 285L1376 421Z" fill="#02010a" stroke="#fb5607"></path><path d="M1499 1176L1462 1151L1402 1293Z" fill="#03020d" stroke="#fb5607"></path><path d="M1462 1151L1499 1176L1536 1043Z" fill="#03040f" stroke="#fb5607"></path><path d="M1736 595L1607 496L1597 615Z" fill="#00101c" stroke="#fb5607"></path><path d="M1597 615L1607 496L1432 556Z" fill="#030613" stroke="#fb5607"></path><path d="M959 1107L1009 1140L1128 1126Z" fill="#03020d" stroke="#fb5607"></path><path d="M1402 1293L1462 1151L1187 1127Z" fill="#030a17" stroke="#fb5607"></path><path d="M842 798L994 891L994 821Z" fill="#010f1b" stroke="#fb5607"></path><path d="M994 891L959 1107L1128 1126Z" fill="#02010a" stroke="#fb5607"></path><path d="M894 991L959 1107L994 891Z" fill="#03040f" stroke="#fb5607"></path><path d="M1249 331L1163 442L1253 441Z" fill="#03040f" stroke="#fb5607"></path><path d="M1163 442L1043 418L1118 526Z" fill="#030511" stroke="#fb5607"></path><path d="M850 713L994 821L1004 810Z" fill="#02010a" stroke="#fb5607"></path><path d="M850 713L1004 810L992 641Z" fill="#030613" stroke="#fb5607"></path><path d="M867 548L850 713L992 641Z" fill="#010f1b" stroke="#fb5607"></path><path d="M1397 285L1249 331L1376 421Z" fill="#030613" stroke="#fb5607"></path><path d="M1376 421L1249 331L1253 441Z" fill="#020d19" stroke="#fb5607"></path><path d="M1787 625L1736 595L1648 753Z" fill="#030613" stroke="#fb5607"></path><path d="M1648 753L1736 595L1597 615Z" fill="#03040f" stroke="#fb5607"></path><path d="M1499 1176L1638 1143L1536 1043Z" fill="#00101c" stroke="#fb5607"></path><path d="M1610 986L1815 928L1583 912Z" fill="#030a17" stroke="#fb5607"></path><path d="M1402 1293L1187 1127L1232 1356Z" fill="#010f1b" stroke="#fb5607"></path><path d="M1499 1176L1517 1252L1638 1143Z" fill="#03020d" stroke="#fb5607"></path><path d="M1049 1259L1187 1127L1128 1126Z" fill="#030613" stroke="#fb5607"></path><path d="M1750 1155L1711 1108L1638 1143Z" fill="#030511" stroke="#fb5607"></path><path d="M1638 1143L1711 1108L1610 986Z" fill="#020b18" stroke="#fb5607"></path><path d="M1043 418L867 548L992 641Z" fill="#020d19" stroke="#fb5607"></path><path d="M1873 754L1787 625L1648 753Z" fill="#030613" stroke="#fb5607"></path><path d="M1736 595L1736 512L1607 496Z" fill="#00101c" stroke="#fb5607"></path><path d="M1787 625L1736 512L1736 595Z" fill="#02010a" stroke="#fb5607"></path><path d="M1607 496L1582 340L1518 444Z" fill="#00101c" stroke="#fb5607"></path><path d="M1489 267L1397 285L1431 450Z" fill="#020b18" stroke="#fb5607"></path><path d="M1489 267L1431 450L1518 444Z" fill="#00101c" stroke="#fb5607"></path><path d="M1711 1108L1815 928L1610 986Z" fill="#030815" stroke="#fb5607"></path><path d="M986 1259L1049 1259L1009 1140Z" fill="#03040f" stroke="#fb5607"></path><path d="M1009 1140L1049 1259L1128 1126Z" fill="#03040f" stroke="#fb5607"></path><path d="M1777 451L1582 340L1607 496Z" fill="#030613" stroke="#fb5607"></path><path d="M894 991L822 1040L959 1107Z" fill="#030a17" stroke="#fb5607"></path><path d="M959 1107L986 1259L1009 1140Z" fill="#020d19" stroke="#fb5607"></path><path d="M771 1017L822 1040L894 991Z" fill="#03020d" stroke="#fb5607"></path><path d="M1076 276L980 353L1043 418Z" fill="#03040f" stroke="#fb5607"></path><path d="M1043 418L898 384L867 548Z" fill="#03040f" stroke="#fb5607"></path><path d="M1076 276L1163 442L1249 331Z" fill="#00101c" stroke="#fb5607"></path><path d="M1815 928L1862 816L1648 753Z" fill="#02010a" stroke="#fb5607"></path><path d="M928 1272L986 1259L959 1107Z" fill="#020d19" stroke="#fb5607"></path><path d="M1049 1259L1232 1356L1187 1127Z" fill="#03020d" stroke="#fb5607"></path><path d="M1089 1440L1232 1356L1049 1259Z" fill="#030613" stroke="#fb5607"></path><path d="M1402 1293L1490 1387L1517 1252Z" fill="#020b18" stroke="#fb5607"></path><path d="M1582 340L1489 267L1518 444Z" fill="#030613" stroke="#fb5607"></path><path d="M1360 217L1210 242L1249 331Z" fill="#02010a" stroke="#fb5607"></path><path d="M1360 217L1249 331L1397 285Z" fill="#030511" stroke="#fb5607"></path><path d="M1632 1326L1750 1155L1638 1143Z" fill="#030613" stroke="#fb5607"></path><path d="M1711 1108L1860 938L1815 928Z" fill="#030511" stroke="#fb5607"></path><path d="M1815 928L1860 938L1862 816Z" fill="#03020d" stroke="#fb5607"></path><path d="M1862 816L1873 754L1648 753Z" fill="#020b18" stroke="#fb5607"></path><path d="M1857 506L1777 451L1736 512Z" fill="#020d19" stroke="#fb5607"></path><path d="M1800 1166L1860 938L1711 1108Z" fill="#02010a" stroke="#fb5607"></path><path d="M1862 816L1927 898L1873 754Z" fill="#030a17" stroke="#fb5607"></path><path d="M1210 242L1076 276L1249 331Z" fill="#010f1b" stroke="#fb5607"></path><path d="M731 977L771 1017L894 991Z" fill="#02010a" stroke="#fb5607"></path><path d="M822 1040L844 1167L959 1107Z" fill="#02010a" stroke="#fb5607"></path><path d="M731 977L894 991L842 798Z" fill="#020d19" stroke="#fb5607"></path><path d="M731 977L842 798L690 752Z" fill="#030613" stroke="#fb5607"></path><path d="M1873 754L1875 689L1787 625Z" fill="#03020d" stroke="#fb5607"></path><path d="M898 384L809 498L867 548Z" fill="#030511" stroke="#fb5607"></path><path d="M867 548L708 666L850 713Z" fill="#03040f" stroke="#fb5607"></path><path d="M954 206L898 384L980 353Z" fill="#03020d" stroke="#fb5607"></path><path d="M980 353L898 384L1043 418Z" fill="#02010a" stroke="#fb5607"></path><path d="M1232 1356L1334 1385L1402 1293Z" fill="#030613" stroke="#fb5607"></path><path d="M1808 1372L1800 1166L1750 1155Z" fill="#03020d" stroke="#fb5607"></path><path d="M1857 506L1736 512L1787 625Z" fill="#030613" stroke="#fb5607"></path><path d="M1736 512L1777 451L1607 496Z" fill="#010f1b" stroke="#fb5607"></path><path d="M1582 340L1619 264L1489 267Z" fill="#00101c" stroke="#fb5607"></path><path d="M1489 267L1360 217L1397 285Z" fill="#020d19" stroke="#fb5607"></path><path d="M771 1017L844 1167L822 1040Z" fill="#03040f" stroke="#fb5607"></path><path d="M690 752L842 798L850 713Z" fill="#010f1b" stroke="#fb5607"></path><path d="M771 1017L746 1222L844 1167Z" fill="#010f1b" stroke="#fb5607"></path><path d="M844 1167L928 1272L959 1107Z" fill="#03040f" stroke="#fb5607"></path><path d="M1066 1440L1089 1440L1049 1259Z" fill="#030613" stroke="#fb5607"></path><path d="M1232 1356L1310 1440L1334 1385Z" fill="#030a17" stroke="#fb5607"></path><path d="M1632 1326L1638 1143L1517 1252Z" fill="#00101c" stroke="#fb5607"></path><path d="M1750 1155L1800 1166L1711 1108Z" fill="#030613" stroke="#fb5607"></path><path d="M809 498L708 666L867 548Z" fill="#03020d" stroke="#fb5607"></path><path d="M1400 1440L1490 1387L1402 1293Z" fill="#00101c" stroke="#fb5607"></path><path d="M1490 1387L1632 1326L1517 1252Z" fill="#00101c" stroke="#fb5607"></path><path d="M708 666L690 752L850 713Z" fill="#030815" stroke="#fb5607"></path><path d="M1777 451L1619 264L1582 340Z" fill="#030613" stroke="#fb5607"></path><path d="M1489 267L1424 80L1360 217Z" fill="#030613" stroke="#fb5607"></path><path d="M1875 689L1857 506L1787 625Z" fill="#030511" stroke="#fb5607"></path><path d="M1777 451L1810 275L1619 264Z" fill="#020b18" stroke="#fb5607"></path><path d="M1957 1005L1927 898L1860 938Z" fill="#020d19" stroke="#fb5607"></path><path d="M1860 938L1927 898L1862 816Z" fill="#010f1b" stroke="#fb5607"></path><path d="M2085 590L1973 537L2103 645Z" fill="#02010a" stroke="#fb5607"></path><path d="M1973 537L1886 461L1857 506Z" fill="#020d19" stroke="#fb5607"></path><path d="M898 384L782 448L809 498Z" fill="#030613" stroke="#fb5607"></path><path d="M809 498L691 657L708 666Z" fill="#03040f" stroke="#fb5607"></path><path d="M693 424L782 448L814 217Z" fill="#02010a" stroke="#fb5607"></path><path d="M693 424L691 657L809 498Z" fill="#020b18" stroke="#fb5607"></path><path d="M708 666L691 657L690 752Z" fill="#020d19" stroke="#fb5607"></path><path d="M1089 1440L1310 1440L1232 1356Z" fill="#020b18" stroke="#fb5607"></path><path d="M1334 1385L1400 1440L1402 1293Z" fill="#030613" stroke="#fb5607"></path><path d="M1857 506L1840 443L1777 451Z" fill="#030511" stroke="#fb5607"></path><path d="M1310 1440L1400 1440L1334 1385Z" fill="#030815" stroke="#fb5607"></path><path d="M1490 1387L1696 1440L1632 1326Z" fill="#030815" stroke="#fb5607"></path><path d="M1400 1440L1460 1440L1490 1387Z" fill="#030511" stroke="#fb5607"></path><path d="M1857 506L1886 461L1840 443Z" fill="#030a17" stroke="#fb5607"></path><path d="M1840 443L1810 275L1777 451Z" fill="#030613" stroke="#fb5607"></path><path d="M1973 537L1857 506L1875 689Z" fill="#02010a" stroke="#fb5607"></path><path d="M1066 1440L1049 1259L986 1259Z" fill="#020b18" stroke="#fb5607"></path><path d="M1800 1166L1957 1005L1860 938Z" fill="#03020d" stroke="#fb5607"></path><path d="M1973 537L1875 689L2103 645Z" fill="#020d19" stroke="#fb5607"></path><path d="M904 1440L1066 1440L986 1259Z" fill="#020d19" stroke="#fb5607"></path><path d="M1125 39L954 206L1076 276Z" fill="#02010a" stroke="#fb5607"></path><path d="M1076 276L954 206L980 353Z" fill="#02010a" stroke="#fb5607"></path><path d="M1125 39L1076 276L1210 242Z" fill="#02010a" stroke="#fb5607"></path><path d="M623 1053L746 1222L771 1017Z" fill="#030815" stroke="#fb5607"></path><path d="M844 1167L746 1222L928 1272Z" fill="#010f1b" stroke="#fb5607"></path><path d="M928 1272L904 1440L986 1259Z" fill="#030511" stroke="#fb5607"></path><path d="M623 1053L771 1017L731 977Z" fill="#030a17" stroke="#fb5607"></path><path d="M560 774L595 795L690 752Z" fill="#00101c" stroke="#fb5607"></path><path d="M690 752L595 795L731 977Z" fill="#00101c" stroke="#fb5607"></path><path d="M560 774L690 752L691 657Z" fill="#020b18" stroke="#fb5607"></path><path d="M2060 915L1873 754L1927 898Z" fill="#03040f" stroke="#fb5607"></path><path d="M1800 1166L1972 1078L1957 1005Z" fill="#00101c" stroke="#fb5607"></path><path d="M1957 1005L2060 915L1927 898Z" fill="#010f1b" stroke="#fb5607"></path><path d="M1912 1214L1972 1078L1800 1166Z" fill="#010f1b" stroke="#fb5607"></path><path d="M814 217L782 448L898 384Z" fill="#020d19" stroke="#fb5607"></path><path d="M782 448L693 424L809 498Z" fill="#020b18" stroke="#fb5607"></path><path d="M1950 390L1840 443L1886 461Z" fill="#030511" stroke="#fb5607"></path><path d="M1950 390L1810 275L1840 443Z" fill="#010f1b" stroke="#fb5607"></path><path d="M1604 41L1424 80L1489 267Z" fill="#03020d" stroke="#fb5607"></path><path d="M516 932L623 1053L731 977Z" fill="#02010a" stroke="#fb5607"></path><path d="M1604 41L1489 267L1619 264Z" fill="#030815" stroke="#fb5607"></path><path d="M1328 0L1125 39L1210 242Z" fill="#010f1b" stroke="#fb5607"></path><path d="M1808 1372L1750 1155L1632 1326Z" fill="#030815" stroke="#fb5607"></path><path d="M1808 1372L1912 1214L1800 1166Z" fill="#00101c" stroke="#fb5607"></path><path d="M542 649L560 774L691 657Z" fill="#00101c" stroke="#fb5607"></path><path d="M595 795L516 932L731 977Z" fill="#02010a" stroke="#fb5607"></path><path d="M1460 1440L1696 1440L1490 1387Z" fill="#020b18" stroke="#fb5607"></path><path d="M716 1277L928 1272L746 1222Z" fill="#030815" stroke="#fb5607"></path><path d="M779 1419L904 1440L928 1272Z" fill="#030a17" stroke="#fb5607"></path><path d="M670 1231L716 1277L746 1222Z" fill="#030613" stroke="#fb5607"></path><path d="M1696 1440L1808 1372L1632 1326Z" fill="#030815" stroke="#fb5607"></path><path d="M2104 937L1957 1005L2101 1085Z" fill="#020b18" stroke="#fb5607"></path><path d="M2104 937L2060 915L1957 1005Z" fill="#020d19" stroke="#fb5607"></path><path d="M1973 537L1950 390L1886 461Z" fill="#030613" stroke="#fb5607"></path><path d="M2081 373L1950 390L2111 410Z" fill="#02010a" stroke="#fb5607"></path><path d="M542 332L644 422L568 268Z" fill="#030613" stroke="#fb5607"></path><path d="M693 424L644 422L691 657Z" fill="#02010a" stroke="#fb5607"></path><path d="M826 171L814 217L954 206Z" fill="#020d19" stroke="#fb5607"></path><path d="M954 206L814 217L898 384Z" fill="#02010a" stroke="#fb5607"></path><path d="M623 1053L670 1231L746 1222Z" fill="#030815" stroke="#fb5607"></path><path d="M1885 197L1715 143L1810 275Z" fill="#030613" stroke="#fb5607"></path><path d="M1810 275L1715 143L1619 264Z" fill="#03020d" stroke="#fb5607"></path><path d="M644 422L542 649L691 657Z" fill="#03040f" stroke="#fb5607"></path><path d="M1328 0L1210 242L1360 217Z" fill="#00101c" stroke="#fb5607"></path><path d="M1715 143L1669 97L1619 264Z" fill="#020d19" stroke="#fb5607"></path><path d="M1424 80L1328 0L1360 217Z" fill="#030613" stroke="#fb5607"></path><path d="M881 0L826 171L954 206Z" fill="#010f1b" stroke="#fb5607"></path><path d="M568 268L644 422L693 424Z" fill="#030613" stroke="#fb5607"></path><path d="M1453 0L1328 0L1424 80Z" fill="#00101c" stroke="#fb5607"></path><path d="M482 753L516 932L560 774Z" fill="#03040f" stroke="#fb5607"></path><path d="M560 774L516 932L595 795Z" fill="#02010a" stroke="#fb5607"></path><path d="M623 1053L476 1140L670 1231Z" fill="#020b18" stroke="#fb5607"></path><path d="M2103 645L1875 689L1873 754Z" fill="#00101c" stroke="#fb5607"></path><path d="M2119 939L2104 937L2101 1085Z" fill="#03040f" stroke="#fb5607"></path><path d="M2060 915L2103 645L1873 754Z" fill="#010f1b" stroke="#fb5607"></path><path d="M1957 1005L1972 1078L2101 1085Z" fill="#030a17" stroke="#fb5607"></path><path d="M2202 667L2103 645L2239 813Z" fill="#030511" stroke="#fb5607"></path><path d="M716 1277L779 1419L928 1272Z" fill="#030511" stroke="#fb5607"></path><path d="M729 1440L779 1419L716 1277Z" fill="#030511" stroke="#fb5607"></path><path d="M1472 0L1453 0L1424 80Z" fill="#020b18" stroke="#fb5607"></path><path d="M1669 97L1604 41L1619 264Z" fill="#010f1b" stroke="#fb5607"></path><path d="M1604 41L1472 0L1424 80Z" fill="#020b18" stroke="#fb5607"></path><path d="M1328 0L1115 0L1125 39Z" fill="#030613" stroke="#fb5607"></path><path d="M1125 39L995 21L954 206Z" fill="#03040f" stroke="#fb5607"></path><path d="M2101 1085L1972 1078L2127 1136Z" fill="#010f1b" stroke="#fb5607"></path><path d="M2104 937L2119 939L2060 915Z" fill="#020b18" stroke="#fb5607"></path><path d="M368 652L482 753L542 649Z" fill="#030511" stroke="#fb5607"></path><path d="M542 649L482 753L560 774Z" fill="#03040f" stroke="#fb5607"></path><path d="M1696 1440L1832 1440L1808 1372Z" fill="#03040f" stroke="#fb5607"></path><path d="M1808 1372L1921 1387L1912 1214Z" fill="#030511" stroke="#fb5607"></path><path d="M1115 0L1071 0L1125 39Z" fill="#00101c" stroke="#fb5607"></path><path d="M1980 216L1885 197L1950 390Z" fill="#02010a" stroke="#fb5607"></path><path d="M1950 390L1885 197L1810 275Z" fill="#030815" stroke="#fb5607"></path><path d="M1715 143L1858 0L1669 97Z" fill="#00101c" stroke="#fb5607"></path><path d="M1669 97L1611 0L1604 41Z" fill="#020d19" stroke="#fb5607"></path><path d="M1071 0L995 21L1125 39Z" fill="#02010a" stroke="#fb5607"></path><path d="M2070 1247L1972 1078L1912 1214Z" fill="#03040f" stroke="#fb5607"></path><path d="M1887 1440L1921 1387L1808 1372Z" fill="#030511" stroke="#fb5607"></path><path d="M478 509L481 583L542 649Z" fill="#030815" stroke="#fb5607"></path><path d="M478 509L542 649L644 422Z" fill="#020d19" stroke="#fb5607"></path><path d="M1858 0L1611 0L1669 97Z" fill="#030a17" stroke="#fb5607"></path><path d="M1604 41L1611 0L1472 0Z" fill="#030a17" stroke="#fb5607"></path><path d="M687 1440L729 1440L716 1277Z" fill="#010f1b" stroke="#fb5607"></path><path d="M779 1419L729 1440L904 1440Z" fill="#03020d" stroke="#fb5607"></path><path d="M687 1440L716 1277L553 1358Z" fill="#03020d" stroke="#fb5607"></path><path d="M284 991L475 1026L516 932Z" fill="#030815" stroke="#fb5607"></path><path d="M516 932L475 1026L623 1053Z" fill="#030511" stroke="#fb5607"></path><path d="M351 810L516 932L482 753Z" fill="#030613" stroke="#fb5607"></path><path d="M1832 1440L1887 1440L1808 1372Z" fill="#010f1b" stroke="#fb5607"></path><path d="M475 1026L485 1064L623 1053Z" fill="#020b18" stroke="#fb5607"></path><path d="M542 332L478 509L644 422Z" fill="#020d19" stroke="#fb5607"></path><path d="M481 583L368 652L542 649Z" fill="#030511" stroke="#fb5607"></path><path d="M2147 1295L2070 1247L2082 1440Z" fill="#030613" stroke="#fb5607"></path><path d="M1921 1387L2070 1247L1912 1214Z" fill="#020b18" stroke="#fb5607"></path><path d="M2111 410L1950 390L1973 537Z" fill="#030a17" stroke="#fb5607"></path><path d="M2111 410L1973 537L2085 590Z" fill="#03040f" stroke="#fb5607"></path><path d="M2070 1247L2127 1136L1972 1078Z" fill="#03040f" stroke="#fb5607"></path><path d="M2101 1085L2213 997L2119 939Z" fill="#030815" stroke="#fb5607"></path><path d="M553 1358L716 1277L670 1231Z" fill="#030815" stroke="#fb5607"></path><path d="M2081 373L1980 216L1950 390Z" fill="#020b18" stroke="#fb5607"></path><path d="M1885 197L1858 0L1715 143Z" fill="#030a17" stroke="#fb5607"></path><path d="M2202 667L2085 590L2103 645Z" fill="#030613" stroke="#fb5607"></path><path d="M2238 546L2111 410L2085 590Z" fill="#03040f" stroke="#fb5607"></path><path d="M2166 247L1983 205L1980 216Z" fill="#030815" stroke="#fb5607"></path><path d="M2103 645L2060 915L2239 813Z" fill="#030511" stroke="#fb5607"></path><path d="M568 268L693 424L814 217Z" fill="#030a17" stroke="#fb5607"></path><path d="M568 268L814 217L598 200Z" fill="#020d19" stroke="#fb5607"></path><path d="M289 1118L476 1140L485 1064Z" fill="#020b18" stroke="#fb5607"></path><path d="M485 1064L476 1140L623 1053Z" fill="#030a17" stroke="#fb5607"></path><path d="M2146 329L1980 216L2081 373Z" fill="#00101c" stroke="#fb5607"></path><path d="M1980 216L1983 205L1885 197Z" fill="#03020d" stroke="#fb5607"></path><path d="M2239 813L2060 915L2119 939Z" fill="#00101c" stroke="#fb5607"></path><path d="M1071 0L881 0L995 21Z" fill="#00101c" stroke="#fb5607"></path><path d="M995 21L881 0L954 206Z" fill="#03040f" stroke="#fb5607"></path><path d="M598 200L814 217L639 144Z" fill="#020b18" stroke="#fb5607"></path><path d="M2270 966L2213 997L2339 1147Z" fill="#02010a" stroke="#fb5607"></path><path d="M2127 1136L2213 997L2101 1085Z" fill="#030a17" stroke="#fb5607"></path><path d="M639 144L814 217L673 109Z" fill="#030511" stroke="#fb5607"></path><path d="M2259 903L2239 813L2119 939Z" fill="#00101c" stroke="#fb5607"></path><path d="M673 109L814 217L826 171Z" fill="#00101c" stroke="#fb5607"></path><path d="M449 1211L553 1358L670 1231Z" fill="#03040f" stroke="#fb5607"></path><path d="M793 0L673 109L826 171Z" fill="#030815" stroke="#fb5607"></path><path d="M479 306L542 332L568 268Z" fill="#03040f" stroke="#fb5607"></path><path d="M479 306L478 509L542 332Z" fill="#020b18" stroke="#fb5607"></path><path d="M328 540L481 583L478 509Z" fill="#030a17" stroke="#fb5607"></path><path d="M328 540L368 652L481 583Z" fill="#030815" stroke="#fb5607"></path><path d="M289 1118L449 1211L476 1140Z" fill="#020b18" stroke="#fb5607"></path><path d="M289 1118L485 1064L475 1026Z" fill="#030a17" stroke="#fb5607"></path><path d="M476 1140L449 1211L670 1231Z" fill="#020d19" stroke="#fb5607"></path><path d="M881 0L793 0L826 171Z" fill="#030613" stroke="#fb5607"></path><path d="M315 751L351 810L482 753Z" fill="#020d19" stroke="#fb5607"></path><path d="M2213 997L2259 903L2119 939Z" fill="#030a17" stroke="#fb5607"></path><path d="M2111 410L2146 329L2081 373Z" fill="#010f1b" stroke="#fb5607"></path><path d="M2206 399L2146 329L2111 410Z" fill="#03040f" stroke="#fb5607"></path><path d="M2238 546L2085 590L2202 667Z" fill="#030613" stroke="#fb5607"></path><path d="M2238 546L2202 667L2320 572Z" fill="#020b18" stroke="#fb5607"></path><path d="M435 249L568 268L598 200Z" fill="#020d19" stroke="#fb5607"></path><path d="M435 249L479 306L568 268Z" fill="#010f1b" stroke="#fb5607"></path><path d="M435 249L598 200L386 198Z" fill="#02010a" stroke="#fb5607"></path><path d="M2362 660L2202 667L2239 813Z" fill="#010f1b" stroke="#fb5607"></path><path d="M1918 0L1858 0L1885 197Z" fill="#03020d" stroke="#fb5607"></path><path d="M1918 0L1885 197L1983 205Z" fill="#03040f" stroke="#fb5607"></path><path d="M2082 1440L2070 1247L1921 1387Z" fill="#030a17" stroke="#fb5607"></path><path d="M2070 1247L2211 1244L2127 1136Z" fill="#010f1b" stroke="#fb5607"></path><path d="M2213 997L2270 966L2259 903Z" fill="#02010a" stroke="#fb5607"></path><path d="M2339 1147L2213 997L2127 1136Z" fill="#020d19" stroke="#fb5607"></path><path d="M2259 903L2339 836L2239 813Z" fill="#03020d" stroke="#fb5607"></path><path d="M2238 546L2206 399L2111 410Z" fill="#010f1b" stroke="#fb5607"></path><path d="M303 559L315 751L368 652Z" fill="#02010a" stroke="#fb5607"></path><path d="M368 652L315 751L482 753Z" fill="#010f1b" stroke="#fb5607"></path><path d="M351 810L284 991L516 932Z" fill="#030a17" stroke="#fb5607"></path><path d="M1887 1440L2082 1440L1921 1387Z" fill="#030815" stroke="#fb5607"></path><path d="M2147 1295L2211 1244L2070 1247Z" fill="#030a17" stroke="#fb5607"></path><path d="M2268 1344L2211 1244L2147 1295Z" fill="#020b18" stroke="#fb5607"></path><path d="M2166 247L1980 216L2146 329Z" fill="#010f1b" stroke="#fb5607"></path><path d="M2010 0L1918 0L1983 205Z" fill="#02010a" stroke="#fb5607"></path><path d="M793 0L687 0L673 109Z" fill="#020d19" stroke="#fb5607"></path><path d="M673 109L464 0L639 144Z" fill="#010f1b" stroke="#fb5607"></path><path d="M334 409L328 540L478 509Z" fill="#03040f" stroke="#fb5607"></path><path d="M2280 336L2166 247L2146 329Z" fill="#030815" stroke="#fb5607"></path><path d="M2082 1440L2112 1440L2147 1295Z" fill="#00101c" stroke="#fb5607"></path><path d="M386 198L598 200L464 0Z" fill="#020b18" stroke="#fb5607"></path><path d="M479 306L334 409L478 509Z" fill="#02010a" stroke="#fb5607"></path><path d="M2484 884L2339 836L2270 966Z" fill="#030511" stroke="#fb5607"></path><path d="M2270 966L2339 836L2259 903Z" fill="#03020d" stroke="#fb5607"></path><path d="M2238 546L2312 382L2206 399Z" fill="#02010a" stroke="#fb5607"></path><path d="M2206 399L2280 336L2146 329Z" fill="#030815" stroke="#fb5607"></path><path d="M296 456L303 559L328 540Z" fill="#030613" stroke="#fb5607"></path><path d="M328 540L303 559L368 652Z" fill="#02010a" stroke="#fb5607"></path><path d="M2362 660L2320 572L2202 667Z" fill="#03040f" stroke="#fb5607"></path><path d="M188 811L351 810L315 751Z" fill="#03020d" stroke="#fb5607"></path><path d="M188 914L284 991L351 810Z" fill="#030815" stroke="#fb5607"></path><path d="M444 1440L463 1440L553 1358Z" fill="#030613" stroke="#fb5607"></path><path d="M435 249L334 409L479 306Z" fill="#00101c" stroke="#fb5607"></path><path d="M444 1440L553 1358L449 1211Z" fill="#030511" stroke="#fb5607"></path><path d="M553 1358L463 1440L687 1440Z" fill="#030a17" stroke="#fb5607"></path><path d="M2108 48L2099 95L2207 0Z" fill="#020d19" stroke="#fb5607"></path><path d="M2166 247L2099 95L1983 205Z" fill="#030815" stroke="#fb5607"></path><path d="M2362 660L2336 542L2320 572Z" fill="#030511" stroke="#fb5607"></path><path d="M2320 572L2336 542L2238 546Z" fill="#020d19" stroke="#fb5607"></path><path d="M2339 836L2362 660L2239 813Z" fill="#03020d" stroke="#fb5607"></path><path d="M2099 95L2010 0L1983 205Z" fill="#030511" stroke="#fb5607"></path><path d="M284 991L289 1118L475 1026Z" fill="#03040f" stroke="#fb5607"></path><path d="M92 314L296 456L334 409Z" fill="#020d19" stroke="#fb5607"></path><path d="M334 409L296 456L328 540Z" fill="#02010a" stroke="#fb5607"></path><path d="M140 659L188 811L315 751Z" fill="#030511" stroke="#fb5607"></path><path d="M323 1311L444 1440L449 1211Z" fill="#030511" stroke="#fb5607"></path><path d="M2312 382L2280 336L2206 399Z" fill="#02010a" stroke="#fb5607"></path><path d="M2358 1175L2334 1159L2211 1244Z" fill="#020b18" stroke="#fb5607"></path><path d="M2211 1244L2334 1159L2127 1136Z" fill="#030511" stroke="#fb5607"></path><path d="M2339 836L2509 668L2362 660Z" fill="#030511" stroke="#fb5607"></path><path d="M2334 1159L2339 1147L2127 1136Z" fill="#03040f" stroke="#fb5607"></path><path d="M2346 305L2560 371L2469 270Z" fill="#030511" stroke="#fb5607"></path><path d="M2336 542L2312 382L2238 546Z" fill="#030815" stroke="#fb5607"></path><path d="M2301 176L2099 95L2166 247Z" fill="#020b18" stroke="#fb5607"></path><path d="M2099 95L2108 48L2010 0Z" fill="#020d19" stroke="#fb5607"></path><path d="M2301 176L2166 247L2280 336Z" fill="#010f1b" stroke="#fb5607"></path><path d="M464 0L598 200L639 144Z" fill="#02010a" stroke="#fb5607"></path><path d="M435 249L308 195L334 409Z" fill="#030a17" stroke="#fb5607"></path><path d="M2112 1440L2268 1344L2147 1295Z" fill="#02010a" stroke="#fb5607"></path><path d="M2334 1159L2358 1175L2339 1147Z" fill="#00101c" stroke="#fb5607"></path><path d="M289 1118L323 1311L449 1211Z" fill="#010f1b" stroke="#fb5607"></path><path d="M2268 1344L2358 1175L2211 1244Z" fill="#030511" stroke="#fb5607"></path><path d="M2339 1147L2484 884L2270 966Z" fill="#020d19" stroke="#fb5607"></path><path d="M211 558L315 751L303 559Z" fill="#030a17" stroke="#fb5607"></path><path d="M284 991L210 1101L289 1118Z" fill="#030511" stroke="#fb5607"></path><path d="M289 1118L200 1286L323 1311Z" fill="#03040f" stroke="#fb5607"></path><path d="M207 547L303 559L296 456Z" fill="#03020d" stroke="#fb5607"></path><path d="M207 547L211 558L303 559Z" fill="#030815" stroke="#fb5607"></path><path d="M188 811L188 914L351 810Z" fill="#010f1b" stroke="#fb5607"></path><path d="M92 314L207 547L296 456Z" fill="#030613" stroke="#fb5607"></path><path d="M211 558L140 659L315 751Z" fill="#030511" stroke="#fb5607"></path><path d="M188 811L184 917L188 914Z" fill="#020d19" stroke="#fb5607"></path><path d="M188 914L184 917L284 991Z" fill="#030a17" stroke="#fb5607"></path><path d="M170 926L210 1101L284 991Z" fill="#020b18" stroke="#fb5607"></path><path d="M80 878L170 926L184 917Z" fill="#02010a" stroke="#fb5607"></path><path d="M184 917L170 926L284 991Z" fill="#03040f" stroke="#fb5607"></path><path d="M80 878L184 917L188 811Z" fill="#030a17" stroke="#fb5607"></path><path d="M2346 305L2312 382L2560 371Z" fill="#030613" stroke="#fb5607"></path><path d="M2312 382L2346 305L2280 336Z" fill="#020d19" stroke="#fb5607"></path><path d="M204 1380L346 1440L323 1311Z" fill="#00101c" stroke="#fb5607"></path><path d="M323 1311L346 1440L444 1440Z" fill="#010f1b" stroke="#fb5607"></path><path d="M687 0L464 0L673 109Z" fill="#030815" stroke="#fb5607"></path><path d="M386 198L308 195L435 249Z" fill="#03020d" stroke="#fb5607"></path><path d="M285 178L308 195L386 198Z" fill="#030815" stroke="#fb5607"></path><path d="M2346 305L2301 176L2280 336Z" fill="#00101c" stroke="#fb5607"></path><path d="M33 704L140 659L0 673Z" fill="#030a17" stroke="#fb5607"></path><path d="M207 547L140 659L211 558Z" fill="#00101c" stroke="#fb5607"></path><path d="M464 0L443 0L386 198Z" fill="#03020d" stroke="#fb5607"></path><path d="M2560 957L2484 884L2339 1147Z" fill="#03020d" stroke="#fb5607"></path><path d="M2362 660L2509 668L2336 542Z" fill="#020d19" stroke="#fb5607"></path><path d="M443 0L285 178L386 198Z" fill="#030815" stroke="#fb5607"></path><path d="M308 195L92 314L334 409Z" fill="#03020d" stroke="#fb5607"></path><path d="M2301 176L2207 0L2099 95Z" fill="#020d19" stroke="#fb5607"></path><path d="M2108 48L2207 0L2010 0Z" fill="#030511" stroke="#fb5607"></path><path d="M210 1101L200 1286L289 1118Z" fill="#030815" stroke="#fb5607"></path><path d="M135 1303L200 1286L210 1101Z" fill="#030815" stroke="#fb5607"></path><path d="M96 1042L210 1101L170 926Z" fill="#030613" stroke="#fb5607"></path><path d="M2484 884L2509 668L2339 836Z" fill="#030511" stroke="#fb5607"></path><path d="M2346 305L2424 157L2301 176Z" fill="#030815" stroke="#fb5607"></path><path d="M2268 1344L2403 1333L2358 1175Z" fill="#03020d" stroke="#fb5607"></path><path d="M2560 1108L2560 957L2339 1147Z" fill="#02010a" stroke="#fb5607"></path><path d="M2382 1440L2403 1333L2268 1344Z" fill="#00101c" stroke="#fb5607"></path><path d="M0 780L80 878L188 811Z" fill="#020d19" stroke="#fb5607"></path><path d="M80 878L96 1042L170 926Z" fill="#020b18" stroke="#fb5607"></path><path d="M135 1303L204 1380L200 1286Z" fill="#030a17" stroke="#fb5607"></path><path d="M200 1286L204 1380L323 1311Z" fill="#030a17" stroke="#fb5607"></path><path d="M2112 1440L2382 1440L2268 1344Z" fill="#030511" stroke="#fb5607"></path><path d="M2560 957L2560 832L2484 884Z" fill="#03040f" stroke="#fb5607"></path><path d="M2484 884L2560 832L2509 668Z" fill="#030511" stroke="#fb5607"></path><path d="M2339 1147L2358 1175L2560 1108Z" fill="#03040f" stroke="#fb5607"></path><path d="M2560 832L2560 698L2509 668Z" fill="#03040f" stroke="#fb5607"></path><path d="M2509 668L2560 440L2336 542Z" fill="#030613" stroke="#fb5607"></path><path d="M2560 698L2560 654L2509 668Z" fill="#02010a" stroke="#fb5607"></path><path d="M2301 176L2319 0L2207 0Z" fill="#00101c" stroke="#fb5607"></path><path d="M2560 1108L2358 1175L2512 1308Z" fill="#03040f" stroke="#fb5607"></path><path d="M0 1173L135 1303L210 1101Z" fill="#02010a" stroke="#fb5607"></path><path d="M2560 440L2312 382L2336 542Z" fill="#030511" stroke="#fb5607"></path><path d="M0 673L140 659L0 543Z" fill="#030a17" stroke="#fb5607"></path><path d="M140 659L33 704L188 811Z" fill="#03040f" stroke="#fb5607"></path><path d="M80 878L0 931L96 1042Z" fill="#020b18" stroke="#fb5607"></path><path d="M96 1042L0 1173L210 1101Z" fill="#03040f" stroke="#fb5607"></path><path d="M2382 1440L2418 1440L2403 1333Z" fill="#030613" stroke="#fb5607"></path><path d="M2469 270L2424 157L2346 305Z" fill="#03040f" stroke="#fb5607"></path><path d="M2512 1308L2358 1175L2403 1333Z" fill="#030511" stroke="#fb5607"></path><path d="M2436 98L2319 0L2301 176Z" fill="#030815" stroke="#fb5607"></path><path d="M2560 654L2560 440L2509 668Z" fill="#030a17" stroke="#fb5607"></path><path d="M2560 197L2436 98L2424 157Z" fill="#020d19" stroke="#fb5607"></path><path d="M2418 1440L2512 1308L2403 1333Z" fill="#020d19" stroke="#fb5607"></path><path d="M33 704L0 780L188 811Z" fill="#00101c" stroke="#fb5607"></path><path d="M0 780L0 858L80 878Z" fill="#030a17" stroke="#fb5607"></path><path d="M91 270L92 314L285 178Z" fill="#030a17" stroke="#fb5607"></path><path d="M285 178L92 314L308 195Z" fill="#030815" stroke="#fb5607"></path><path d="M33 704L0 673L0 780Z" fill="#020d19" stroke="#fb5607"></path><path d="M0 543L140 659L207 547Z" fill="#030511" stroke="#fb5607"></path><path d="M0 858L0 931L80 878Z" fill="#010f1b" stroke="#fb5607"></path><path d="M2560 440L2560 371L2312 382Z" fill="#020d19" stroke="#fb5607"></path><path d="M102 144L91 270L285 178Z" fill="#030511" stroke="#fb5607"></path><path d="M0 364L0 543L207 547Z" fill="#030a17" stroke="#fb5607"></path><path d="M2560 197L2424 157L2469 270Z" fill="#02010a" stroke="#fb5607"></path><path d="M2424 157L2436 98L2301 176Z" fill="#020d19" stroke="#fb5607"></path><path d="M0 364L207 547L92 314Z" fill="#030511" stroke="#fb5607"></path><path d="M0 931L0 1059L96 1042Z" fill="#00101c" stroke="#fb5607"></path><path d="M443 0L238 0L285 178Z" fill="#00101c" stroke="#fb5607"></path><path d="M0 1440L130 1440L135 1303Z" fill="#03020d" stroke="#fb5607"></path><path d="M135 1303L130 1440L204 1380Z" fill="#02010a" stroke="#fb5607"></path><path d="M204 1380L130 1440L346 1440Z" fill="#020b18" stroke="#fb5607"></path><path d="M2560 1303L2560 1291L2512 1308Z" fill="#030613" stroke="#fb5607"></path><path d="M2512 1308L2560 1291L2560 1108Z" fill="#02010a" stroke="#fb5607"></path><path d="M2560 1440L2560 1303L2512 1308Z" fill="#030613" stroke="#fb5607"></path><path d="M2560 371L2560 286L2469 270Z" fill="#030a17" stroke="#fb5607"></path><path d="M238 0L210 0L285 178Z" fill="#010f1b" stroke="#fb5607"></path><path d="M0 1059L0 1173L96 1042Z" fill="#030a17" stroke="#fb5607"></path><path d="M210 0L102 144L285 178Z" fill="#03020d" stroke="#fb5607"></path><path d="M0 264L0 364L92 314Z" fill="#00101c" stroke="#fb5607"></path><path d="M0 264L92 314L91 270Z" fill="#030511" stroke="#fb5607"></path><path d="M0 1173L0 1248L135 1303Z" fill="#030a17" stroke="#fb5607"></path><path d="M2560 286L2560 197L2469 270Z" fill="#010f1b" stroke="#fb5607"></path><path d="M2436 98L2481 0L2319 0Z" fill="#03040f" stroke="#fb5607"></path><path d="M2418 1440L2560 1440L2512 1308Z" fill="#020b18" stroke="#fb5607"></path><path d="M0 57L0 264L102 144Z" fill="#02010a" stroke="#fb5607"></path><path d="M102 144L0 264L91 270Z" fill="#010f1b" stroke="#fb5607"></path><path d="M2560 0L2481 0L2436 98Z" fill="#030511" stroke="#fb5607"></path><path d="M0 1248L0 1440L135 1303Z" fill="#00101c" stroke="#fb5607"></path><path d="M2560 197L2560 0L2436 98Z" fill="#020b18" stroke="#fb5607"></path><path d="M210 0L0 57L102 144Z" fill="#010f1b" stroke="#fb5607"></path><path d="M210 0L0 0L0 57Z" fill="#030613" stroke="#fb5607"></path></g></svg>